<?xml version="1.0" encoding="UTF-8" standalone="no"?>
<!DOCTYPE svg PUBLIC "-//W3C//DTD SVG 1.1//EN" "http://www.w3.org/Graphics/SVG/1.1/DTD/svg11.dtd">
<svg version="1.1" xmlns="http://www.w3.org/2000/svg" xmlns:xlink="http://www.w3.org/1999/xlink" preserveAspectRatio="xMidYMid meet" viewBox="0 0 100 100" width="100" height="100"><defs><path d="M73.68 31.66C68.26 31.66 63.15 33.56 59.32 37C58.84 37.43 56.42 39.61 52.08 43.53L57.21 48.17C61.49 44.31 63.87 42.17 64.34 41.75C66.82 39.52 70.14 38.28 73.68 38.28C77.21 38.28 80.53 39.52 83.01 41.75C85.46 43.95 86.81 46.88 86.81 50.02C86.81 53.14 85.46 56.08 83.01 58.28C80.53 60.5 77.21 61.74 73.68 61.74C70.14 61.74 66.82 60.5 64.34 58.28C61.97 56.15 43.02 39.15 40.66 37.02C36.83 33.58 31.71 31.68 26.3 31.68C20.89 31.68 15.78 33.58 11.95 37.02C8.1 40.46 5.96 45.07 5.96 50C5.96 54.93 8.1 59.54 11.95 63C15.78 66.44 20.89 68.34 26.3 68.34C31.71 68.34 36.83 66.44 40.66 63C41.14 62.57 43.55 60.4 47.9 56.49L42.77 51.86C38.5 55.7 36.13 57.83 35.66 58.25C33.18 60.48 29.86 61.72 26.32 61.72C22.79 61.72 19.47 60.48 16.99 58.25C14.54 56.05 13.19 53.12 13.19 50C13.19 46.88 14.54 43.95 16.99 41.72C19.47 39.5 22.79 38.26 26.32 38.26C29.86 38.26 33.18 39.5 35.66 41.72C38.03 43.85 56.98 60.85 59.34 62.98C63.17 66.42 68.29 68.32 73.7 68.32C79.11 68.32 84.22 66.42 88.05 62.98C91.9 59.52 94.04 54.91 94.04 49.98C94.01 45.07 91.88 40.46 88.03 37C84.2 33.56 79.09 31.66 73.68 31.66Z" id="f1dLUCkPL0"></path></defs><g><g><g><use xlink:href="#f1dLUCkPL0" opacity="1" fill="#ffffff" fill-opacity="1"></use><g><use xlink:href="#f1dLUCkPL0" opacity="1" fill-opacity="0" stroke="#000000" stroke-width="1" stroke-opacity="0"></use></g></g></g></g></svg>